<svg xmlns="http://www.w3.org/2000/svg" viewBox="-30 -60 776.96 338.28" style="background-color: #0f421d">
	<defs>
		<style>
			.cls-1 {
				fill: #f6f6f6;
			}

			.cls-2 {
				fill: #95c11f;
			}
		</style>
	</defs>
	<g id="Livello_2" data-name="Livello 2">
		<g id="Layer_1" data-name="Layer 1">
			<path class="cls-1"
				d="M260.35,179v-40.4c.44-9.27-4.34-14.92-11.3-14.78s-12.74,5.65-12.89,14.92V179h-20V138.78c.14-9.41-4.64-15.06-12-14.92s-13.76,5.94-13.76,15.36V179H170.27V130.53c0-6.81-.29-9.13-6.66-9.13V109.09c9.12-2.61,25.2-4.2,25.2,9.7,3.76-8,13.75-11.15,22.44-11.15,12.17,0,18,4.2,21.29,12.75,4.2-8.55,14.49-12.75,24.19-12.75,19.84,0,24.48,14,24,31V179Z" />
			<path class="cls-1"
				d="M318,180.35c-13,0-24.91-8.4-25.34-21.87-.72-17.09,11.59-25.2,27.08-25.2,6.23,0,13.33,1.16,18.54,4.49V133c0-8.55-10.43-10-17.38-10-7.38,0-14.19.87-20.13,4.21l-2.61-14.49c7.39-3.47,16.8-5.21,26.22-5.21,18,0,33.31,5.94,33.31,26.07v25.2c0,5.94-.15,9.41,6.52,9l.14,11.29c-10.57,2.32-22.16,1.74-22.16-10.71C338,177,327,180.35,318,180.35Zm19.85-30a26.39,26.39,0,0,0-14.49-4.06c-6.37.44-11.58,4.06-10.86,10.86.44,5.07,4.93,7.54,9.56,7.54,6.66,0,15.06-3.34,15.79-10.72Z" />
			<path class="cls-1"
				d="M417.62,107.06a24.3,24.3,0,0,1,14.92,4.49l-4.49,17a22,22,0,0,0-13-3.77c-8.83,0-16.36,5.8-16.36,16.51V179H378.81V129.8c0-5.79-.58-9.56-7-8.54V108.8c10.14-2.32,25.06-2.32,26.22,10.14C401,111,409.08,107.06,417.62,107.06Z" />
			<path class="cls-1"
				d="M487.71,177.45c-26.93,12.75-49.82-2.46-49.82-32.3,0-26.5,18.25-36.93,39.69-36.49A76.38,76.38,0,0,1,507.27,115v67.49c0,38.09-36.07,42.87-64.45,27.81l2.6-15.65c16.23,8.84,42.29,14.49,42.29-11.44Zm-.29-50.69a47.73,47.73,0,0,0-11.87-1.45c-10.57,0-17.09,5.94-17.53,19.7-.43,18.68,14.78,23.9,29.4,15.79Z" />
			<path class="cls-1"
				d="M557.37,180.49c-18.54,0-37.22-12.16-37.22-36.64,0-24.19,18.25-36.5,36.64-36.64,18.68-.15,37.37,12,37.37,36.64S575.76,180.49,557.37,180.49Zm-.43-17.67c8.54.15,17.09-6.23,17.09-19,0-12.46-8.11-18.83-16.66-18.83s-17.09,6.23-17.09,18.83S548.54,162.82,556.94,162.82Z" />
			<path class="cls-1"
				d="M657.88,179v-40.4c.43-9.56-5.94-14.92-13.18-14.92-7.68,0-14.77,5.5-14.77,15.35v40H609.65V130.82c0-7,0-9.13-6.66-9.13v-12.6c9.27-1.59,25.49-3.18,25.49,9.42,3.91-8.12,14.19-10.87,22.3-10.87,19.7,0,27.52,13.62,27.52,31V179Z" />
			<path class="cls-1"
				d="M705.38,77.52c5.79.14,11.58,4,11.58,11.59s-5.65,11.58-11.44,11.73c-6.08.14-12.31-3.77-12.31-11.73S699.29,77.37,705.38,77.52ZM715.22,179H695V110.1h20.27Z" />
			<path class="cls-1"
				d="M174.41,87c-4.21,0-8-2.71-8.17-7C166,74.42,170,71.81,175,71.81a11.39,11.39,0,0,1,6,1.45V71.72c0-2.76-3.36-3.22-5.6-3.22a13,13,0,0,0-6.49,1.35L168,65.18a20.4,20.4,0,0,1,8.45-1.68c5.79,0,10.73,1.92,10.73,8.4V80c0,1.91,0,3,2.1,2.89l.05,3.64c-3.41.75-7.14.56-7.14-3.45C180.85,85.91,177.3,87,174.41,87Zm6.39-9.66A8.47,8.47,0,0,0,176.13,76c-2,.14-3.73,1.31-3.5,3.5a2.81,2.81,0,0,0,3.08,2.43c2.15,0,4.86-1.07,5.09-3.46Z" />
			<path class="cls-1" d="M210,64.81l-9.8,16.1H210v5.65H190.79v-.75l9.94-16.33h-9.24V64.06H210Z" />
			<path class="cls-1"
				d="M217.07,53.84a3.76,3.76,0,0,1,0,7.52,3.69,3.69,0,0,1-4-3.79A3.61,3.61,0,0,1,217.07,53.84Zm3.17,32.72h-6.53V64.34h6.53Z" />
			<path class="cls-1"
				d="M245.63,76.66H230.37c.23,3.51,2.85,4.86,6,5.09a15.77,15.77,0,0,0,3,0,19.63,19.63,0,0,0,5.37-1.36l.75,4.76a20.79,20.79,0,0,1-8.73,2c-7.56.14-12.88-4.48-12.88-12.09.14-7.84,5.83-11.53,11.8-11.53C243.86,63.5,247.36,69,245.63,76.66Zm-15.21-4.2h9.89c.14-2.94-2.24-4-4.67-4A5,5,0,0,0,230.42,72.46Z" />
			<path class="cls-1"
				d="M266,86.56v-13c.14-3.08-1.92-4.81-4.25-4.81a4.68,4.68,0,0,0-4.76,5V86.56h-6.54V71c0-2.24,0-2.94-2.15-2.94V64c3-.52,8.22-1,8.22,3,1.26-2.61,4.57-3.5,7.19-3.5,6.35,0,8.87,4.39,8.87,10v13Z" />
			<path class="cls-1"
				d="M293.06,82.78a7.29,7.29,0,0,1-6.77,4.34c-6.81.14-10.41-5.51-10.41-11.81,0-8.87,8.08-14.28,15.92-10.41V52.44h6.53V79.09c0,2.2-.28,3.41,2.1,3.27l.05,4.25c-3.27.74-7.28.7-7.42-3.22ZM292,70.41c-4.67-2.71-9.62-.75-9.62,4.9,0,3.22,1.45,6,4.95,6,2.84,0,4.67-2.38,4.67-5.13Z" />
			<path class="cls-1"
				d="M310.84,87c-4.2,0-8-2.71-8.17-7-.23-5.51,3.74-8.12,8.73-8.12a11.41,11.41,0,0,1,6,1.45V71.72c0-2.76-3.36-3.22-5.6-3.22a13,13,0,0,0-6.49,1.35l-.84-4.67a20.36,20.36,0,0,1,8.45-1.68c5.78,0,10.73,1.92,10.73,8.4V80c0,1.91,0,3,2.1,2.89l0,3.64c-3.41.75-7.14.56-7.14-3.45C317.28,85.91,313.74,87,310.84,87Zm6.4-9.66A8.49,8.49,0,0,0,312.57,76c-2.05.14-3.73,1.31-3.5,3.5a2.81,2.81,0,0,0,3.08,2.43c2.15,0,4.85-1.07,5.09-3.46Z" />
			<path class="cls-1"
				d="M345.8,87c-4.2,0-8-2.71-8.17-7-.23-5.51,3.74-8.12,8.73-8.12a11.41,11.41,0,0,1,6,1.45V71.72c0-2.76-3.36-3.22-5.6-3.22a13,13,0,0,0-6.49,1.35l-.84-4.67a20.36,20.36,0,0,1,8.45-1.68c5.79,0,10.73,1.92,10.73,8.4V80c0,1.91,0,3,2.1,2.89l.05,3.64c-3.41.75-7.14.56-7.14-3.45C352.24,85.91,348.7,87,345.8,87Zm6.4-9.66A8.49,8.49,0,0,0,347.53,76c-2,.14-3.73,1.31-3.5,3.5a2.81,2.81,0,0,0,3.08,2.43c2.15,0,4.85-1.07,5.09-3.46Z" />
			<path class="cls-1"
				d="M378.66,86.05c-8.68,4.1-16.05-.8-16.05-10.41,0-8.54,5.88-11.9,12.79-11.76A24.54,24.54,0,0,1,385,65.93V87.68c0,12.28-11.62,13.82-20.77,9l.84-5c5.23,2.85,13.63,4.67,13.63-3.69Zm-.09-16.34a15.21,15.21,0,0,0-3.83-.47c-3.4,0-5.5,1.92-5.64,6.35-.14,6,4.76,7.7,9.47,5.09Z" />
			<path class="cls-1"
				d="M403.12,63.36a7.87,7.87,0,0,1,4.81,1.45l-1.45,5.46a7,7,0,0,0-4.2-1.21A5,5,0,0,0,397,74.38V86.56h-6.4V70.69c0-1.87-.18-3.08-2.24-2.75v-4c3.27-.74,8.08-.74,8.45,3.27C397.75,64.62,400.37,63.36,403.12,63.36Z" />
			<path class="cls-1"
				d="M413.63,53.84a3.76,3.76,0,0,1,0,7.52,3.7,3.7,0,0,1-4-3.79A3.62,3.62,0,0,1,413.63,53.84Zm3.17,32.72h-6.54V64.34h6.54Z" />
			<path class="cls-1"
				d="M437.29,72.18a4.76,4.76,0,0,0-4.71-3.08,5.77,5.77,0,0,0-5.7,6.12c0,4.06,2.9,6.21,5.7,6.21a4.9,4.9,0,0,0,4.8-3.51h6.21c-.93,6-6,9.06-11.2,9.11-5.93,0-12-3.88-12-11.81s6.12-11.86,12.05-11.86c5.08,0,10,2.94,11.06,8.82Z" />
			<path class="cls-1"
				d="M457.55,87c-6,0-12-3.92-12-11.81s5.88-11.76,11.81-11.81,12,3.87,12,11.81S463.48,87,457.55,87Zm-.14-5.7c2.75,0,5.51-2,5.51-6.11s-2.62-6.07-5.37-6.07-5.51,2-5.51,6.07S454.7,81.33,457.41,81.33Z" />
			<path class="cls-1"
				d="M479.21,52.39V78c0,3.45,1.35,4.15,4.48,3.64l.23,4.9c-6.95,1.26-11.15-.47-11.15-8.54V52.39Z" />
			<path class="cls-1"
				d="M492.84,87c-4.2,0-8-2.71-8.17-7-.23-5.51,3.73-8.12,8.73-8.12a11.39,11.39,0,0,1,6,1.45V71.72c0-2.76-3.36-3.22-5.6-3.22a13,13,0,0,0-6.49,1.35l-.84-4.67a20.4,20.4,0,0,1,8.45-1.68c5.79,0,10.74,1.92,10.74,8.4V80c0,1.91-.05,3,2.1,2.89l0,3.64c-3.4.75-7.14.56-7.14-3.45C499.28,85.91,495.73,87,492.84,87Zm6.39-9.66A8.44,8.44,0,0,0,494.56,76c-2.05.14-3.73,1.31-3.5,3.5a2.81,2.81,0,0,0,3.08,2.43c2.15,0,4.86-1.07,5.09-3.46Z" />
			<path class="cls-2"
				d="M63.2,201.7l-8.76-9.6c12.34-11.27,19.7-23.38,22-36.12-23.57,2.4-44.71-4.47-57-18.64C5.16,120.91-1,103.6.12,82.87a6.52,6.52,0,0,1,5.53-6.09c22-3.29,37.73-.06,54.13,11.15,8.64,5.91,26.64,25.91,29.87,51.5,15.49-6.5,29.35-21.05,35.89-38.64,5.91-15.9,10.82-47.62-20-85.28C97.43,23,85.18,38.4,81.69,56.84c-2.75,14.59.5,28.62,9.66,41.72L80.69,106C69.45,89.94,65.49,72.58,68.92,54.43,73.94,27.85,94,7,102.85,1.09a6.5,6.5,0,0,1,8.47,1.1C151,47,144.89,86,137.73,105.32c-8.54,23-27,41.12-47.83,47.9C88.31,170.68,79.36,187,63.2,201.7ZM13,89c.31,14.94,5.43,27.42,16.21,39.86,9.81,11.32,27.61,16.53,47.73,14C75,121,59.38,103.41,52.44,98.67,41.81,91.39,31.24,87.18,13,89Z" />
		</g>
	</g>
</svg>