<?xml version="1.0" encoding="UTF-8"?><svg id="Livello_1" xmlns="http://www.w3.org/2000/svg" viewBox="0 0 1080 1080" style="background-color: white;"><defs><style>.cls-1{fill:#1d1d1b;stroke-width:0px;}</style></defs><path class="cls-1" d="M546.58,456.75c-14.11,0-28.45.04-42.83.09h-2.52c-7.64,0-15.32,0-23.01.04h-2.56c-13.03.04-37.61.04-58.33.09h-2.56c-9.03.04-17.21.04-23.19.04h-1.57c-.4,0-.72-.04-1.08-.04-.49,0-.99,0-1.48.04h-23.23c-.85,0-1.75,0-2.61.04-51.99.09-100.53.13-139.44.04t-.09,0s-.04.04-.09,0c-9.71.04-18.78.04-27.19,0-16.04,0-29.52-.04-39.77-.09,49.75-49.03,107.54-87.49,170.72-114.01.67-.31,1.35-.58,2.02-.85,6.34-2.65,12.76-5.21,19.23-7.59.67-.27,1.35-.49,2.07-.72,36.18-13.3,73.92-22.78,112.8-28.22,7.05,12.63,15.05,26.87,23.68,42.38h.04c7.73,13.84,16.04,28.72,24.76,44.26.45.76.9,1.53,1.3,2.34,3.87,6.83,7.77,13.8,11.77,20.9.4.76.85,1.57,1.3,2.34,7.1,12.67,14.42,25.7,21.84,38.92ZM431.23,481.74h-2.56c-7.77,0-15.5,0-23.19.04h-2.61c-54.38.09-106.14.13-148.75.13-23.1,0-43.5-.04-60.13-.09-19.68-.04-46.92-.09-62.42-.22-11.77,13.08-22.96,26.74-33.57,41.07l-12.76,17.21,9.71,13.35c11.59,15.95,23.91,31.14,36.94,45.57.58.76,1.3,1.48,2.02,2.25,6.25,6.97,12.76,13.71,19.37,20.31.76.72,1.53,1.48,2.29,2.25,49.48,48.62,107.04,86.87,169.96,113.33,6.34-11.91,13.53-25.26,21.35-39.82,11.82-22.15,25.12-46.96,39.23-73.34.45-.76.85-1.53,1.26-2.29,3.55-6.65,7.19-13.39,10.83-20.22.4-.72.81-1.48,1.21-2.25,11.01-20.54,22.38-41.7,33.84-63.09.4-.76.81-1.57,1.26-2.34,3.78-7.06,7.55-14.16,11.37-21.21.4-.76.85-1.57,1.21-2.34,5.12-9.48,10.2-18.96,15.28-28.36-10.43,0-20.81,0-31.14.04ZM545.01,734.78c-4.05-7.15-8.13-14.47-12.27-21.84-.45-.76-.85-1.53-1.3-2.29-3.87-6.88-7.77-13.84-11.77-20.9-.4-.76-.85-1.53-1.3-2.34-11.77-20.94-23.82-42.38-35.86-63.81-.4-.72-.85-1.48-1.26-2.25-3.77-6.74-7.59-13.48-11.37-20.22-.45-.76-.85-1.53-1.3-2.25-7.06-12.58-14.07-25.08-20.99-37.39-6.74,12.63-13.44,25.12-20.09,37.48-.4.76-.81,1.48-1.17,2.25-3.68,6.79-7.28,13.53-10.83,20.22-.45.76-.85,1.53-1.26,2.29-15.77,29.39-30.74,57.34-44.04,82.24-7.77,14.47-15.01,27.95-21.48,40.09,39.14,14.38,80.17,24.36,122.46,29.52.76.09,1.57.18,2.38.27,7.24.85,14.51,1.57,21.84,2.16.81.09,1.62.13,2.43.18,13.12.99,26.33,1.53,39.63,1.57h2.65c9.98,0,19.91-.27,29.75-.81-7.91-14.07-16.22-28.85-24.85-44.17ZM857.65,623.02c-82.55,0-163.71.09-189.14.13h-.04c-.85,0-1.66,0-2.52.04-7.5,0-15.28,0-23.23.04h-2.56c-18.78.04-38.69.09-59.36.13h-2.56c-7.55,0-15.23.04-23.01.04-.85,0-1.71,0-2.56.04-13.75,0-27.73.04-41.84.09,7.15,12.72,14.29,25.39,21.39,37.97v.04c.45.81.9,1.53,1.35,2.29v.04c3.91,7.01,7.86,13.98,11.73,20.9v.04c.45.76.85,1.48,1.3,2.25,8.94,15.95,17.75,31.59,26.24,46.69,8.45,14.96,16.58,29.43,24.27,43.1,39.82-4,78.55-12.22,115.81-24.45.72-.22,1.44-.45,2.16-.72,6.52-2.11,12.99-4.4,19.41-6.83.72-.27,1.39-.54,2.11-.76,70.1-26.65,134.1-67.63,188.43-121.15-21.84-.04-44.67,0-67.36.04ZM985.05,526.81c-11.73-16.09-24.13-31.37-37.21-45.88-.67-.76-1.35-1.53-2.07-2.25-6.29-6.97-12.76-13.71-19.37-20.22-.76-.81-1.53-1.57-2.29-2.25-54.38-53.43-118.46-94.28-188.7-120.75-6.65,12.36-13.89,25.75-21.57,40-13.39,24.94-28.18,52.4-43.5,80.98h-.04c-.4.76-.76,1.48-1.17,2.25-3.64,6.7-7.23,13.48-10.92,20.27-.4.76-.81,1.53-1.21,2.29-11.01,20.49-22.2,41.34-33.39,62.15-.4.81-.81,1.57-1.26,2.34-3.78,7.1-7.55,14.16-11.32,21.17-.4.81-.85,1.57-1.26,2.34-5.3,9.89-10.56,19.68-15.73,29.39,10.96-.04,21.75-.04,32.22-.09h2.56c7.91,0,15.68-.04,23.23-.04h2.56c38.6-.09,138.14-.22,231.25-.27,21.53-.04,42.69-.04,62.73-.04,11.73-12.99,22.87-26.6,33.43-40.85l12.72-17.21-9.71-13.3ZM587.03,302.16c-.81-.04-1.62-.13-2.43-.18-7.41-.58-14.87-1.03-22.33-1.3-.81-.04-1.66-.09-2.52-.09-5.71-.22-11.46-.31-17.21-.36h-2.65c-17.26,0-34.38.76-51.32,2.34,7.15,12.85,15.28,27.41,24.18,43.32,3.73,6.61,7.55,13.48,11.55,20.54.4.76.85,1.53,1.3,2.34v.04c3.82,6.79,7.73,13.75,11.73,20.9.45.76.85,1.57,1.3,2.34,11.5,20.54,23.73,42.29,36.27,64.62.45.76.85,1.53,1.26,2.25,3.77,6.7,7.55,13.44,11.37,20.22.45.76.85,1.53,1.3,2.29,6.79,12.09,13.62,24.22,20.45,36.4,6.52-12.18,13.08-24.36,19.59-36.49.4-.81.85-1.57,1.26-2.34,3.64-6.79,7.23-13.53,10.83-20.22.4-.76.81-1.48,1.21-2.25,16.72-31.19,32.99-61.39,47.86-89.02,7.64-14.2,14.92-27.68,21.7-40.31-39.99-13.03-81.79-21.44-124.7-25.03Z"/></svg>